<?xml version="1.0" standalone="no"?>
<!DOCTYPE svg PUBLIC "-//W3C//DTD SVG 20010904//EN"
 "http://www.w3.org/TR/2001/REC-SVG-20010904/DTD/svg10.dtd">
<svg version="1.0" xmlns="http://www.w3.org/2000/svg"
 width="700.000000pt" height="700.000000pt" viewBox="0 0 700.000000 700.000000"
 preserveAspectRatio="xMidYMid meet">
<metadata>
Created by potrace 1.11, written by Peter Selinger 2001-2013
</metadata>
<g transform="translate(0.000000,700.000000) scale(0.100000,-0.100000)"
fill="#000000" stroke="none">
<path d="M6205 6984 c-186 -40 -360 -176 -444 -344 -23 -47 -44 -96 -47 -110
-21 -106 -25 -143 -22 -213 l3 -80 -185 -144 c-102 -79 -192 -149 -200 -156
-22 -18 -272 -214 -350 -273 -62 -48 -68 -51 -91 -38 -26 14 -119 44 -159 51
-64 10 -178 9 -240 -3 -134 -25 -248 -89 -352 -194 l-66 -68 -79 23 c-43 13
-125 35 -183 50 -58 15 -127 34 -155 41 -27 8 -160 44 -295 80 -135 35 -252
67 -261 70 -12 3 -18 23 -22 77 -8 87 -26 148 -68 230 -66 130 -175 237 -305
298 -183 85 -417 80 -583 -13 -230 -129 -353 -343 -348 -604 l2 -101 -493
-493 c-373 -373 -496 -490 -509 -485 -28 10 -174 7 -233 -6 -131 -28 -288
-124 -373 -228 -119 -146 -170 -353 -133 -542 47 -236 218 -425 453 -499 93
-30 244 -34 340 -9 194 49 349 172 434 344 104 211 89 452 -42 656 -16 25 -29
49 -29 53 0 4 185 192 410 417 l411 409 47 -33 c185 -129 447 -149 652 -50 69
34 99 55 168 118 30 28 60 49 67 47 6 -1 104 -27 216 -57 112 -30 240 -64 284
-76 44 -12 109 -29 145 -39 36 -10 130 -35 210 -56 80 -20 148 -40 152 -43 4
-3 10 -28 13 -56 11 -82 66 -225 102 -263 7 -7 13 -17 13 -22 0 -18 120 -130
180 -169 167 -108 373 -134 563 -70 333 111 521 478 417 812 -12 38 -20 70
-18 72 6 6 264 209 298 235 18 14 59 45 90 70 31 25 70 55 86 67 31 24 35 27
156 123 l78 62 37 -29 c70 -54 166 -100 248 -120 64 -15 217 -15 289 1 189 42
361 177 443 346 111 229 92 472 -52 675 -152 212 -414 314 -670 259z m208
-435 c83 -23 147 -111 147 -204 0 -121 -93 -215 -213 -216 -65 -1 -112 18
-154 61 -45 46 -64 93 -64 155 0 147 136 246 284 204z m-3926 -660 c148 -56
181 -260 60 -366 -139 -122 -358 -20 -357 165 1 153 154 256 297 201z m2192
-659 c223 -101 141 -430 -103 -414 -93 7 -173 77 -194 169 -38 171 139 316
297 245z m-3932 -1096 c173 -78 163 -327 -16 -401 -52 -22 -142 -12 -192 21
-109 72 -131 225 -47 326 57 69 169 92 255 54z"/>
<path d="M2970 4372 c-156 -15 -281 -112 -326 -251 -17 -53 -18 -151 -19
-1863 0 -993 -3 -1810 -8 -1814 -7 -8 -634 -10 -642 -2 -3 2 -5 227 -5 499 -1
470 -2 497 -21 554 -42 123 -147 219 -266 244 -42 9 -181 12 -513 9 l-455 -3
-61 -28 c-64 -30 -136 -96 -171 -158 -43 -76 -46 -118 -46 -631 0 -438 -2
-488 -16 -489 -9 0 -70 -1 -136 -3 -92 -1 -129 -6 -157 -20 -83 -40 -128 -115
-124 -206 4 -88 49 -154 130 -191 40 -18 150 -18 3256 -19 l3215 0 55 28 c78
39 115 101 115 191 -1 71 -15 109 -59 153 -52 51 -90 62 -229 64 -70 1 -131 5
-135 9 -4 3 -7 523 -8 1153 -1 1193 -1 1189 -42 1266 -50 92 -141 164 -234
186 -56 14 -874 19 -952 6 -132 -22 -256 -135 -289 -266 -12 -46 -15 -251 -15
-1197 0 -629 -3 -1146 -5 -1150 -6 -10 -635 -9 -644 1 -4 4 -8 822 -8 1819 0
997 -5 1823 -9 1837 -40 122 -140 228 -241 255 -16 4 -37 10 -45 12 -16 5
-849 10 -890 5z m747 -2184 c2 -1633 1 -1748 -15 -1749 -20 -1 -612 -1 -628 0
-9 1 -12 452 -11 1749 l0 1749 326 -1 326 -1 2 -1747z m2189 -656 c0 -893 -2
-1092 -13 -1093 -17 -1 -574 -1 -613 0 l-30 1 0 1089 c0 746 3 1090 10 1093 6
2 154 3 328 3 l317 0 1 -1093z m-4403 -221 l27 -1 -2 -437 -3 -436 -318 0
c-174 0 -320 3 -325 7 -4 4 -7 200 -8 434 0 336 3 428 13 432 9 4 464 4 616 1z"/>
</g>
</svg>
